{"title":"QI_XL_O_S15E13 Omnishambles. revittony","magnet":"magnet:?xt=urn:btih:cfb1552474ec505f929050609f304189730c2ce0&dn=QI_XL_O_S15E13+Omnishambles.+revittony&tr=udp%3A%2F%2Ftracker.leechers-paradise.org%3A6969&tr=udp%3A%2F%2Fzer0day.ch%3A1337&tr=udp%3A%2F%2Fopen.demonii.com%3A1337&tr=udp%3A%2F%2Ftracker.coppersurfer.tk%3A6969&tr=udp%3A%2F%2Fexodus.desync.com%3A6969","uploader":"revittony1","categoryP":"video","categoryS":"tv_shows","size":"800319692","seeders":"0","leechers":"0","description":"Format : MPEG-4 \r\nFormat profile : Base Media \r\nCodec ID : isom (isom/iso2/avc1/mp41) \r\nOverall bit rate mode : Variable \r\nOverall bit rate : 2 390 kb/s \r\n\r\nVideo \r\nID : 1 \r\nFormat : AVC \r\nFormat/Info : Advanced Video Codec \r\nFormat profile : <a href=\"/cdn-cgi/l/email-protection\" class=\"__cf_email__\" data-cfemail=\"f5bd9c929db5b9c1dbc4\">[email&#xA0;protected]</a> \r\nFormat settings : CABAC / 2 Ref Frames \r\nFormat settings, CABAC : Yes \r\nFormat settings, RefFrames : 2 frames \r\nCodec ID : avc1 \r\nCodec ID/Info : Advanced Video Coding \r\nDuration : 44 min 24 s \r\nBit rate mode : Variable \r\nBit rate : 2 291 kb/s \r\nMaximum bit rate : 3 500 kb/s \r\nWidth : 1 280 pixels \r\nHeight : 720 pixels \r\nDisplay aspect ratio : 16:9 \r\nFrame rate mode : Constant \r\nFrame rate : 25.000 FPS \r\nColor space : YUV \r\nChroma subsampling : 4:2:0 \r\nBit depth : 8 bits \r\nScan type : Progressive \r\nBits/(Pixel*Frame) : 0.099 \r\nStream size : 728 MiB (96%) \r\n\r\nAudio \r\nID : 2 \r\nFormat : AAC \r\nFormat/Info : Advanced Audio Codec \r\nFormat profile : LC \r\nCodec ID : mp4a-40-2 \r\nDuration : 44 min 24 s \r\nBit rate mode : Constant \r\nBit rate : 93.4 kb/s \r\nChannel(s) : 2 channels \r\nChannel positions : Front: L R \r\nSampling rate : 48.0 kHz \r\nFrame rate : 46.875 FPS (1024 SPF) \r\nCompression mode : Lossy \r\nStream size : 29.7 MiB (4%) \r\nDefault : Yes \r\nAlternate group : 1","last_updated":"2018-01-28T12:01:06.354Z","parsed":{"xt":"urn:btih:cfb1552474ec505f929050609f304189730c2ce0","dn":"QI_XL_O_S15E13 Omnishambles. revittony","tr":["udp://exodus.desync.com:6969","udp://open.demonii.com:1337","udp://tracker.coppersurfer.tk:6969","udp://tracker.leechers-paradise.org:6969","udp://zer0day.ch:1337"],"infoHash":"cfb1552474ec505f929050609f304189730c2ce0","infoHashBuffer":{"type":"Buffer","data":[207,177,85,36,116,236,80,95,146,144,80,96,159,48,65,137,115,12,44,224]},"name":"QI_XL_O_S15E13 Omnishambles. revittony","announce":["udp://exodus.desync.com:6969","udp://open.demonii.com:1337","udp://tracker.coppersurfer.tk:6969","udp://tracker.leechers-paradise.org:6969","udp://zer0day.ch:1337"],"urlList":[]}}